<svg xmlns="http://www.w3.org/2000/svg"
  class="chart-svg chart-row"
  viewBox="0 0 1000 280"
  tabindex="0"
  role="img"
  aria-label="Would your mix ever have looked like Top 1%?"
  style="fill:rgb(0, 0, 0);fill-opacity:1;stroke-width:1px;font-size:15px;font-weight:400;text-anchor:start;opacity:1;">
<g class="tick"
  style="fill:rgb(0, 0, 0);fill-opacity:1;stroke-width:1px;font-size:15px;font-weight:400;text-anchor:start;opacity:1;">
<line x1="46"
  x2="982"
  y1="250"
  y2="250"
  style="fill:rgb(0, 0, 0);fill-opacity:1;stroke:rgb(225, 224, 217);stroke-width:1px;font-size:15px;font-weight:400;text-anchor:start;opacity:1;"/>
<text x="38"
  y="254"
  text-anchor="end"
  style="fill:rgb(137, 135, 129);fill-opacity:1;stroke-width:1px;font-size:11px;font-weight:400;text-anchor:end;opacity:1;">0.00</text>
</g>
<g class="tick"
  style="fill:rgb(0, 0, 0);fill-opacity:1;stroke-width:1px;font-size:15px;font-weight:400;text-anchor:start;opacity:1;">
<line x1="46"
  x2="982"
  y1="191"
  y2="191"
  style="fill:rgb(0, 0, 0);fill-opacity:1;stroke:rgb(225, 224, 217);stroke-width:1px;font-size:15px;font-weight:400;text-anchor:start;opacity:1;"/>
<text x="38"
  y="195"
  text-anchor="end"
  style="fill:rgb(137, 135, 129);fill-opacity:1;stroke-width:1px;font-size:11px;font-weight:400;text-anchor:end;opacity:1;">0.25</text>
</g>
<g class="tick"
  style="fill:rgb(0, 0, 0);fill-opacity:1;stroke-width:1px;font-size:15px;font-weight:400;text-anchor:start;opacity:1;">
<line x1="46"
  x2="982"
  y1="132"
  y2="132"
  style="fill:rgb(0, 0, 0);fill-opacity:1;stroke:rgb(225, 224, 217);stroke-width:1px;font-size:15px;font-weight:400;text-anchor:start;opacity:1;"/>
<text x="38"
  y="136"
  text-anchor="end"
  style="fill:rgb(137, 135, 129);fill-opacity:1;stroke-width:1px;font-size:11px;font-weight:400;text-anchor:end;opacity:1;">0.50</text>
</g>
<g class="tick"
  style="fill:rgb(0, 0, 0);fill-opacity:1;stroke-width:1px;font-size:15px;font-weight:400;text-anchor:start;opacity:1;">
<line x1="46"
  x2="982"
  y1="73"
  y2="73"
  style="fill:rgb(0, 0, 0);fill-opacity:1;stroke:rgb(225, 224, 217);stroke-width:1px;font-size:15px;font-weight:400;text-anchor:start;opacity:1;"/>
<text x="38"
  y="77"
  text-anchor="end"
  style="fill:rgb(137, 135, 129);fill-opacity:1;stroke-width:1px;font-size:11px;font-weight:400;text-anchor:end;opacity:1;">0.75</text>
</g>
<g class="tick"
  style="fill:rgb(0, 0, 0);fill-opacity:1;stroke-width:1px;font-size:15px;font-weight:400;text-anchor:start;opacity:1;">
<line x1="46"
  x2="982"
  y1="14"
  y2="14"
  style="fill:rgb(0, 0, 0);fill-opacity:1;stroke:rgb(225, 224, 217);stroke-width:1px;font-size:15px;font-weight:400;text-anchor:start;opacity:1;"/>
<text x="38"
  y="18"
  text-anchor="end"
  style="fill:rgb(137, 135, 129);fill-opacity:1;stroke-width:1px;font-size:11px;font-weight:400;text-anchor:end;opacity:1;">1.00</text>
</g>
<text class="axis-label"
  x="46"
  y="271"
  text-anchor="middle"
  style="fill:rgb(137, 135, 129);fill-opacity:1;stroke-width:1px;font-size:11px;font-weight:400;text-anchor:middle;opacity:1;">1989</text>
<text class="axis-label"
  x="166.9795918367347"
  y="271"
  text-anchor="middle"
  style="fill:rgb(137, 135, 129);fill-opacity:1;stroke-width:1px;font-size:11px;font-weight:400;text-anchor:middle;opacity:1;">1994</text>
<text class="axis-label"
  x="287.9591836734694"
  y="271"
  text-anchor="middle"
  style="fill:rgb(137, 135, 129);fill-opacity:1;stroke-width:1px;font-size:11px;font-weight:400;text-anchor:middle;opacity:1;">1999</text>
<text class="axis-label"
  x="408.9387755102041"
  y="271"
  text-anchor="middle"
  style="fill:rgb(137, 135, 129);fill-opacity:1;stroke-width:1px;font-size:11px;font-weight:400;text-anchor:middle;opacity:1;">2003</text>
<text class="axis-label"
  x="529.9183673469388"
  y="271"
  text-anchor="middle"
  style="fill:rgb(137, 135, 129);fill-opacity:1;stroke-width:1px;font-size:11px;font-weight:400;text-anchor:middle;opacity:1;">2008</text>
<text class="axis-label"
  x="650.8979591836735"
  y="271"
  text-anchor="middle"
  style="fill:rgb(137, 135, 129);fill-opacity:1;stroke-width:1px;font-size:11px;font-weight:400;text-anchor:middle;opacity:1;">2013</text>
<text class="axis-label"
  x="771.8775510204082"
  y="271"
  text-anchor="middle"
  style="fill:rgb(137, 135, 129);fill-opacity:1;stroke-width:1px;font-size:11px;font-weight:400;text-anchor:middle;opacity:1;">2018</text>
<text class="axis-label"
  x="892.8571428571429"
  y="271"
  text-anchor="middle"
  style="fill:rgb(137, 135, 129);fill-opacity:1;stroke-width:1px;font-size:11px;font-weight:400;text-anchor:middle;opacity:1;">2022</text>
<path d="M46.0,119.2 L52.4,116.0 L58.7,117.0 L65.1,114.4 L71.5,119.4 L77.8,116.4 L84.2,109.9 L90.6,108.5 L96.9,105.7 L103.3,100.2 L109.7,98.2 L116.0,96.7 L122.4,96.3 L128.8,95.4 L135.1,95.8 L141.5,97.4 L147.9,99.2 L154.2,100.8 L160.6,103.2 L167.0,106.2 L173.3,108.5 L179.7,112.2 L186.1,112.6 L192.4,113.4 L198.8,115.2 L205.2,113.6 L211.6,111.6 L217.9,110.9 L224.3,109.7 L230.7,108.3 L237.0,106.7 L243.4,105.6 L249.8,105.1 L256.1,104.6 L262.5,104.1 L268.9,103.4 L275.2,102.4 L281.6,100.9 L288.0,99.2 L294.3,98.7 L300.7,97.9 L307.1,98.5 L313.4,97.2 L319.8,94.8 L326.2,94.4 L332.5,91.6 L338.9,88.4 L345.3,88.2 L351.6,88.8 L358.0,85.9 L364.4,84.2 L370.7,83.2 L377.1,84.8 L383.5,81.2 L389.8,81.1 L396.2,79.6 L402.6,79.3 L408.9,79.0 L415.3,80.7 L421.7,81.0 L428.0,81.7 L434.4,81.0 L440.8,79.8 L447.1,79.8 L453.5,79.8 L459.9,79.6 L466.2,80.7 L472.6,80.7 L479.0,81.5 L485.3,82.5 L491.7,83.5 L498.1,84.3 L504.4,85.5 L510.8,84.6 L517.2,82.9 L523.6,83.2 L529.9,82.4 L536.3,81.8 L542.7,81.7 L549.0,76.3 L555.4,77.9 L561.8,77.0 L568.1,78.8 L574.5,80.0 L580.9,82.2 L587.2,83.8 L593.6,85.3 L600.0,85.5 L606.3,85.5 L612.7,86.7 L619.1,87.4 L625.4,87.5 L631.8,88.6 L638.2,87.4 L644.5,87.6 L650.9,87.1 L657.3,87.8 L663.6,88.7 L670.0,89.3 L676.4,90.6 L682.7,90.5 L689.1,91.4 L695.5,91.8 L701.8,92.0 L708.2,91.3 L714.6,91.6 L720.9,91.3 L727.3,91.5 L733.7,92.2 L740.0,91.7 L746.4,91.9 L752.8,92.8 L759.1,92.9 L765.5,93.8 L771.9,93.2 L778.2,93.4 L784.6,94.0 L791.0,92.4 L797.3,94.9 L803.7,94.9 L810.1,95.4 L816.4,96.8 L822.8,91.8 L829.2,94.2 L835.6,95.1 L841.9,97.5 L848.3,97.9 L854.7,97.8 L861.0,97.5 L867.4,98.5 L873.8,95.6 L880.1,91.2 L886.5,91.9 L892.9,92.9 L899.2,93.4 L905.6,92.8 L912.0,91.9 L918.3,93.5 L924.7,94.2 L931.1,93.5 L937.4,95.4 L943.8,96.2 L950.2,95.3 L956.5,96.5 L962.9,99.0 L969.3,100.0 L975.6,99.3 L982.0,102.7"
  fill="none"
  stroke="var(--series-you)"
  stroke-width="2"
  stroke-linejoin="round"
  style="fill-opacity:1;stroke:rgb(42, 120, 214);stroke-width:2px;font-size:15px;font-weight:400;text-anchor:start;opacity:1;"/>
<line class="baseline"
  x1="46"
  x2="982"
  y1="250"
  y2="250"
  style="fill:rgb(0, 0, 0);fill-opacity:1;stroke:rgb(195, 194, 183);stroke-width:1px;font-size:15px;font-weight:400;text-anchor:start;opacity:1;"/>
</svg>